<svg xmlns="http://www.w3.org/2000/svg" width="30.41" height="55.62" viewBox="0 0 30.41 55.62">
  <defs>
    <style>
      .cls-1 {
        fill: #fff;
        fill-rule: evenodd;
      }
    </style>
  </defs>
  <path id="Facebook" class="cls-1" d="M1512.04,1753.39l-7.29-.01c-8.19,0-13.49,5.37-13.49,13.69v6.31h-7.33a1.137,1.137,0,0,0-1.14,1.13v9.15a1.131,1.131,0,0,0,1.14,1.13h7.33v23.08a1.14,1.14,0,0,0,1.15,1.13h9.56a1.133,1.133,0,0,0,1.15-1.13v-23.08h8.57a1.133,1.133,0,0,0,1.15-1.13v-9.15a1.136,1.136,0,0,0-.33-0.8,1.177,1.177,0,0,0-.81-0.33h-8.58v-5.35c0-2.57.62-3.88,4.01-3.88h4.91a1.137,1.137,0,0,0,1.14-1.13v-8.5A1.137,1.137,0,0,0,1512.04,1753.39Z" transform="translate(-1482.78 -1753.38)"/>
</svg>
